<?xml version="1.0" encoding="utf-8"?>
<!-- Generator: Adobe Illustrator 19.1.0, SVG Export Plug-In . SVG Version: 6.00 Build 0)  -->
<svg version="1.1" id="Layer_1" xmlns="http://www.w3.org/2000/svg" xmlns:xlink="http://www.w3.org/1999/xlink" x="0px" y="0px"
	 viewBox="0 0 425.2 425.2" style="enable-background:new 0 0 425.2 425.2;" xml:space="preserve">
<style type="text/css">
	.st0{fill:#FFFFFF;}
</style>
<g>
	<path class="st0" d="M372.2,158.4c-5.7-17.5-2.7-39.6-13.3-54.2c-10.7-14.7-32.7-18.6-47.5-29.3c-14.6-10.6-25-30.4-42.5-36.1
		C252,33.3,232,43,213.3,43c-18.7,0-38.8-9.7-55.6-4.2c-17.5,5.7-28,25.5-42.5,36.1c-14.7,10.7-36.8,14.6-47.5,29.3
		C57,118.8,60,140.9,54.4,158.4c-5.5,16.9-21.1,32.9-21.1,51.6c0,18.7,15.6,34.7,21.1,51.6c5.7,17.5,2.7,39.6,13.3,54.2
		c10.7,14.7,32.7,18.6,47.5,29.3c14.6,10.6,25,30.4,42.5,36.1c16.9,5.5,36.9-4.2,55.6-4.2c18.7,0,38.8,9.7,55.6,4.2
		c17.5-5.7,28-25.5,42.5-36.1c14.7-10.7,36.8-14.6,47.5-29.3c10.6-14.6,7.6-36.7,13.3-54.2c5.5-16.9,21.1-32.9,21.1-51.6
		C393.3,191.3,377.7,175.3,372.2,158.4z M213.3,368.8c-87.7,0-158.7-71.1-158.7-158.7S125.6,51.3,213.3,51.3S372,122.4,372,210
		S300.9,368.8,213.3,368.8z"/>
	<g>
		<path class="st0" d="M102.2,153l15,53.2h-6.5l-2.3-8.6H95.9l-2.2,8.6h-6.5L102.2,153z M107,191.9l-3.5-13.3l-1.3-6.2l-1.3,6.2
			l-3.5,13.3H107z"/>
		<path class="st0" d="M133.9,182h10.7v24.8c-3.2,0.1-6.3-0.4-9.1-1.5c-2.9-1.1-5.4-2.8-7.5-5.1c-2.1-2.3-3.8-5.2-5.1-8.7
			c-1.3-3.5-1.9-7.5-1.9-12.1c0-4.1,0.5-7.7,1.5-10.8c1-3.2,2.3-5.8,3.9-8c1.6-2.2,3.5-3.8,5.7-4.9c2.1-1.1,4.4-1.7,6.7-1.7
			c1,0,2,0.1,3,0.3c1,0.2,2,0.6,3.1,1l-2.7,5.2c-0.4-0.2-1-0.3-1.6-0.4c-0.6-0.1-1.2-0.1-1.7-0.1c-1.4,0-2.8,0.4-4.2,1.3
			c-1.4,0.8-2.6,2.1-3.7,3.7c-1.1,1.6-2,3.7-2.7,6.1c-0.7,2.4-1,5.2-1,8.4c0,2.8,0.3,5.4,0.8,7.7c0.6,2.3,1.3,4.3,2.3,6
			c1,1.7,2.2,3.1,3.6,4.2c1.4,1.1,2.9,1.9,4.6,2.4v-12l-4.6,0L133.9,182z"/>
		<path class="st0" d="M154.2,154.6h17.4v5.7h-11.3v19.8h9.7v5.7h-9.7v14.7h11.3v5.7h-17.4V154.6z"/>
		<path class="st0" d="M180.9,152.6l16.2,27l3.6,6.3l-0.2-6.2v-25.2h6v52.7l-16.3-26.9l-3.5-5.6l0.2,5.6v25.8h-6V152.6z"/>
		<path class="st0" d="M222.4,160.3h-8.1v-5.7h22.2v5.7h-8.1v45.9h-6V160.3z"/>
		<path class="st0" d="M255.6,154.6l17.6,0v5.7h-11.6v21.8h10v5.7h-10v18.4h-6V154.6z"/>
		<path class="st0" d="M293.2,206.8c-1,0-2.1-0.2-3.2-0.5c-1.1-0.3-2.2-0.9-3.2-1.6c-1-0.8-2-1.8-2.9-3.1c-0.9-1.3-1.7-2.9-2.4-4.9
			c-0.7-2-1.3-4.3-1.7-7c-0.4-2.7-0.6-5.8-0.6-9.4s0.2-6.7,0.6-9.4c0.4-2.7,1-5,1.7-7c0.7-2,1.5-3.6,2.4-4.9
			c0.9-1.3,1.9-2.3,2.9-3.1c1-0.8,2.1-1.3,3.2-1.6c1.1-0.3,2.2-0.5,3.2-0.5c1,0,2.1,0.2,3.2,0.5c1.1,0.3,2.2,0.9,3.2,1.6
			c1,0.8,2,1.8,2.9,3.1c0.9,1.3,1.7,2.9,2.4,4.9c0.7,2,1.3,4.3,1.7,7c0.4,2.7,0.6,5.8,0.6,9.4s-0.2,6.7-0.6,9.4c-0.4,2.7-1,5-1.7,7
			c-0.7,2-1.5,3.6-2.4,4.9c-0.9,1.3-1.9,2.3-2.9,3.1c-1,0.8-2.1,1.3-3.2,1.6C295.2,206.7,294.2,206.8,293.2,206.8z M293.2,200.9
			c0.9,0,1.8-0.3,2.8-1c0.9-0.7,1.8-1.8,2.5-3.3c0.7-1.6,1.4-3.7,1.8-6.3c0.5-2.6,0.7-5.9,0.7-9.8s-0.2-7.2-0.7-9.8
			c-0.5-2.6-1.1-4.7-1.8-6.3c-0.7-1.6-1.6-2.7-2.5-3.3c-0.9-0.7-1.8-1-2.8-1s-1.8,0.3-2.8,1c-0.9,0.7-1.8,1.8-2.5,3.3
			c-0.7,1.6-1.4,3.7-1.8,6.3c-0.5,2.6-0.7,5.9-0.7,9.8s0.2,7.2,0.7,9.8c0.5,2.6,1.1,4.7,1.8,6.3c0.7,1.6,1.6,2.7,2.5,3.3
			C291.3,200.5,292.3,200.9,293.2,200.9z"/>
		<path class="st0" d="M315.7,154c3.7-0.2,6.9,0.2,9.7,1c2.7,0.8,5,2,6.8,3.6c1.8,1.6,3.1,3.5,4,5.8c0.9,2.3,1.3,4.8,1.3,7.5
			c0,3.2-0.6,6.1-1.7,8.6c-1.2,2.5-3,4.5-5.4,6.1l9,19.7h-6.8l-7.4-17.4c-1.1,0.3-2.2,0.5-3.4,0.7v16.7h-6V154z M321.7,183.4
			c1.4-0.1,2.7-0.5,3.8-1c1.2-0.5,2.2-1.3,3-2.2c0.8-1,1.5-2.1,2-3.5c0.5-1.4,0.7-3,0.7-4.8c0-1.8-0.2-3.4-0.7-4.8
			c-0.5-1.4-1.1-2.6-2-3.5c-0.8-1-1.8-1.7-3-2.2c-1.2-0.5-2.4-0.8-3.8-1V183.4z"/>
		<path class="st0" d="M108.8,291.5c-2.9,0-5.6-0.6-8.3-1.9c-2.6-1.3-4.9-3.4-6.9-6.3c-2-2.9-3.5-6.7-4.7-11.4
			c-1.2-4.7-1.7-10.4-1.7-17.1c0-6.7,0.6-12.5,1.7-17.1c1.2-4.7,2.7-8.5,4.7-11.4c2-2.9,4.2-5,6.9-6.3c2.6-1.3,5.4-2,8.3-2
			c1.7,0,3.2,0.2,4.6,0.5s2.8,0.8,4.3,1.4l-3.8,7.3c-1.1-0.5-2.5-0.8-4-0.8c-1.7,0-3.4,0.5-5,1.5c-1.7,1-3.1,2.6-4.5,4.9
			c-1.3,2.3-2.4,5.2-3.2,8.8c-0.8,3.6-1.2,8-1.2,13.2s0.4,9.6,1.2,13.2c0.8,3.6,1.9,6.6,3.2,8.8c1.3,2.3,2.8,3.9,4.5,4.9
			c1.7,1,3.3,1.5,5,1.5c1.6,0,2.9-0.3,4-0.8l3.8,7.3c-1.5,0.6-2.9,1.1-4.3,1.4S110.4,291.5,108.8,291.5z"/>
		<path class="st0" d="M129,218.7h8.4v39.9h15.9v-39.9h8.4v72h-8.4v-24.1h-15.9v24.1H129V218.7z"/>
		<path class="st0" d="M191.5,216.5l20.9,74.2h-9l-3.2-12h-17.5l-3.1,12h-9L191.5,216.5z M198.1,270.8l-4.8-18.6l-1.9-8.6l-1.8,8.6
			l-4.9,18.6H198.1z"/>
		<path class="st0" d="M221.3,215.9l22.6,37.7l5,8.8l-0.2-8.6v-35.1h8.4v73.5l-22.7-37.5l-4.9-7.9l0.3,7.9v36h-8.4V215.9z"/>
		<path class="st0" d="M315.1,218.7h24.2v8h-15.8v27.7h13.6v8h-13.6v20.5h15.8v8h-24.2V218.7z"/>
		<path class="st0" d="M286.2,257.1h14.4v33.6c-4.4,0.2-8.5-0.5-12.3-2c-3.9-1.5-7.3-3.8-10.1-6.9c-2.9-3.1-5.2-7-6.9-11.7
			c-1.7-4.7-2.5-10.1-2.5-16.3c0-5.5,0.7-10.4,2-14.6c1.3-4.3,3.1-7.9,5.3-10.8c2.2-2.9,4.8-5.2,7.6-6.7c2.9-1.5,5.9-2.3,9.1-2.3
			c1.4,0,2.7,0.1,4.1,0.4c1.3,0.3,2.7,0.7,4.2,1.4l-3.7,7.1c-0.6-0.2-1.3-0.4-2.2-0.5c-0.9-0.1-1.6-0.2-2.3-0.2
			c-1.9,0-3.8,0.6-5.7,1.7c-1.9,1.1-3.5,2.8-5,5c-1.5,2.2-2.7,5-3.6,8.3c-0.9,3.3-1.4,7.1-1.4,11.4c0,3.8,0.4,7.3,1.1,10.4
			c0.8,3.1,1.8,5.8,3.2,8.1c1.3,2.3,2.9,4.2,4.8,5.7c1.9,1.5,3.9,2.6,6.2,3.2v-16.2l-6.2,0L286.2,257.1z"/>
		<rect x="192" y="117" class="st0" width="47" height="8.8"/>
	</g>
</g>
</svg>
